<?xml version="1.0" standalone="no"?>
<!DOCTYPE svg PUBLIC "-//W3C//DTD SVG 20010904//EN"
 "http://www.w3.org/TR/2001/REC-SVG-20010904/DTD/svg10.dtd">
<svg version="1.0" xmlns="http://www.w3.org/2000/svg"
 width="260.000000pt" height="260.000000pt" viewBox="0 0 260.000000 260.000000"
 preserveAspectRatio="xMidYMid meet">
<metadata>
Created by potrace 1.14, written by Peter Selinger 2001-2017
</metadata>
<g transform="translate(0.000000,260.000000) scale(0.100000,-0.100000)"
fill="#000000" stroke="none">
<path d="M1270 2570 c0 -18 -4 -29 -10 -25 -5 3 -10 2 -10 -4 0 -5 5 -13 10
-16 15 -9 12 -25 -4 -19 -10 4 -16 -2 -18 -18 -2 -13 -9 -23 -17 -23 -8 0 -16
-6 -19 -14 -3 -8 0 -11 5 -8 6 4 18 -2 28 -13 18 -20 17 -20 -16 -22 -19 0
-39 -1 -45 -1 -7 0 -11 -10 -10 -24 1 -19 5 -23 21 -19 15 4 12 -1 -9 -19 -16
-14 -40 -25 -53 -25 -12 0 -23 -4 -23 -10 0 -5 4 -10 9 -10 5 0 7 -8 4 -18 -2
-10 3 -24 11 -31 23 -19 20 -27 -21 -66 -34 -32 -35 -35 -15 -35 16 0 22 -6
22 -22 0 -17 3 -19 12 -10 14 14 32 16 23 3 -3 -5 3 -11 12 -14 10 -2 -1 -8
-25 -12 -23 -4 -45 -12 -49 -18 -4 -6 4 -8 21 -3 14 3 38 9 52 12 19 5 25 4
20 -5 -4 -6 -17 -11 -29 -11 -33 -1 -92 -33 -93 -50 -1 -33 16 -47 62 -53 26
-2 59 -1 75 3 17 5 31 5 35 -1 3 -5 10 -7 15 -4 5 4 9 2 9 -4 0 -5 -4 -13 -10
-16 -5 -3 -10 -1 -10 4 0 24 -74 3 -118 -32 -8 -6 -27 -12 -44 -13 -33 -3 -50
-14 -30 -21 18 -7 14 -33 -5 -33 -10 -1 -29 -7 -43 -15 -21 -12 -22 -14 -6
-15 14 0 16 -3 8 -13 -14 -16 125 -15 156 2 18 10 21 8 19 -10 -1 -15 -12 -23
-44 -32 -24 -6 -43 -16 -43 -23 0 -6 -15 -15 -34 -18 -18 -4 -42 -16 -52 -28
-19 -20 -19 -21 3 -14 19 6 22 4 17 -9 -6 -14 -1 -16 32 -11 l39 6 -33 -15
c-18 -9 -60 -18 -92 -22 -33 -3 -57 -10 -54 -14 8 -14 123 9 205 41 28 12 54
18 57 16 3 -3 -4 -8 -14 -12 -10 -3 -48 -17 -83 -31 -35 -15 -70 -26 -77 -26
-8 0 -14 -5 -14 -10 0 -5 7 -7 15 -3 9 3 15 0 15 -8 0 -8 -7 -17 -16 -20 -8
-3 -12 -2 -9 4 3 6 3 10 0 10 -12 0 -116 -72 -111 -77 2 -3 15 2 28 10 16 11
51 15 123 15 87 0 96 -2 70 -12 -17 -7 -28 -17 -25 -22 3 -5 -14 -15 -38 -22
-23 -8 -39 -18 -36 -24 3 -5 13 -6 23 -2 9 3 36 13 61 20 40 12 43 12 26 -1
-26 -20 -1 -20 36 -1 21 11 26 11 22 1 -6 -14 -36 -25 -72 -25 -22 0 -33 -6
-73 -42 -10 -10 -22 -17 -26 -17 -5 1 -21 0 -38 -1 -30 -2 -30 -2 -5 -10 25
-8 25 -8 -7 -15 -38 -9 -44 -25 -10 -25 l22 -1 -24 -13 c-13 -7 -19 -16 -14
-19 5 -3 26 5 46 18 44 30 107 31 107 2 0 -16 4 -15 35 8 39 30 55 27 47 -10
-3 -18 -11 -25 -29 -25 -13 0 -33 -8 -44 -19 -22 -20 -62 -31 -114 -31 -34 0
-94 -17 -109 -31 -5 -4 12 -2 38 6 26 8 46 10 46 5 0 -9 -14 -14 -32 -11 -5 0
-8 -4 -8 -10 0 -7 12 -10 30 -7 25 4 28 2 17 -10 -10 -13 -9 -14 10 -4 12 7
33 12 47 12 21 0 26 -5 26 -24 0 -21 -8 -26 -72 -42 -40 -9 -67 -19 -61 -21 7
-3 29 1 49 7 19 7 38 10 40 7 3 -3 -8 -8 -25 -12 -17 -4 -31 -12 -31 -19 0 -7
-14 -22 -31 -35 -17 -13 -28 -25 -25 -29 4 -3 19 3 34 14 15 11 36 24 46 27
16 6 17 5 6 -8 -16 -20 -6 -19 25 1 23 15 28 15 57 1 35 -17 60 -11 108 23 16
11 32 20 38 20 5 0 15 7 22 15 18 21 30 19 30 -6 0 -16 -5 -20 -19 -16 -11 3
-32 -7 -52 -24 -19 -16 -42 -29 -51 -29 -10 0 -18 -4 -18 -8 0 -18 -56 -39
-87 -32 -23 5 -36 3 -44 -6 -6 -8 -29 -17 -50 -20 -23 -4 -36 -11 -32 -17 6
-10 -78 -3 -115 10 -12 4 -14 3 -7 -5 6 -5 19 -12 30 -15 14 -3 11 -5 -10 -6
-16 0 -45 8 -63 19 -18 11 -39 20 -47 20 -19 0 -29 20 -16 33 7 7 16 5 31 -8
14 -13 24 -16 28 -8 14 22 48 24 72 3 28 -24 48 -27 29 -3 -8 10 -9 14 -2 10
6 -4 14 -3 18 3 3 5 -1 10 -9 10 -8 0 -18 5 -22 12 -4 7 -3 8 4 4 7 -4 12 -2
12 4 0 6 -10 10 -23 8 -13 -1 -36 7 -51 20 -16 12 -41 22 -57 22 -15 0 -30 4
-33 9 -7 10 71 8 97 -3 10 -5 17 -4 17 3 0 6 -11 13 -24 17 -14 3 -31 13 -40
23 -14 15 -10 16 52 16 37 -1 78 -7 92 -14 25 -12 25 -12 4 6 -12 10 -41 32
-64 50 l-43 32 54 -4 c53 -4 53 -4 11 5 -23 5 -46 12 -51 15 -5 3 -12 1 -16
-5 -3 -5 -12 -10 -18 -10 -7 0 -6 4 3 10 13 9 13 10 0 11 -8 0 3 6 25 13 l40
13 -40 19 c-22 10 -42 22 -45 25 -3 4 -16 10 -30 14 -25 8 -40 22 -40 39 0 5
6 3 14 -3 8 -7 42 -13 76 -15 35 -2 56 1 48 5 -10 7 -10 9 0 9 24 0 11 19 -18
25 -28 6 -43 25 -19 25 5 0 7 5 4 10 -4 6 -14 10 -23 9 -10 -2 -33 7 -52 19
-24 16 -44 21 -65 17 -20 -3 -25 -2 -16 4 8 5 38 9 67 9 28 0 57 2 63 6 19 12
12 44 -10 51 -15 5 -18 10 -10 15 8 4 2 11 -18 20 -17 7 -28 16 -25 21 3 5 10
7 15 4 5 -4 16 1 25 10 15 14 14 18 -10 42 -24 24 -25 27 -9 39 10 7 15 16 11
20 -4 4 -3 13 3 21 9 10 7 13 -9 13 -11 0 -30 9 -43 20 -13 11 -18 19 -10 18
7 -2 15 2 18 9 3 7 -11 15 -34 19 -35 7 -36 8 -15 17 26 12 29 27 6 27 -11 0
-15 6 -11 19 3 12 0 18 -7 15 -6 -2 -12 3 -13 13 -3 38 -15 108 -19 112 -2 2
-5 -13 -5 -35 -1 -21 -2 -43 -4 -49 -1 -5 -3 -20 -3 -32 -2 -22 -32 -34 -32
-13 0 6 -4 10 -9 10 -6 0 -4 -12 4 -27 15 -29 11 -47 -10 -39 -12 4 -27 -15
-29 -39 -1 -5 -17 -18 -36 -27 -21 -11 -28 -18 -17 -18 10 0 17 -6 16 -12 -4
-34 1 -38 26 -22 14 9 28 14 31 11 3 -3 -4 -11 -16 -17 -15 -8 -20 -19 -18
-38 2 -21 -2 -27 -22 -33 -14 -4 -19 -7 -11 -8 11 -1 10 -5 -3 -20 -17 -19
-17 -19 16 -17 18 2 43 6 56 10 27 9 28 -4 4 -34 -16 -20 -21 -21 -41 -10 -19
10 -22 9 -19 -1 3 -8 -4 -18 -15 -24 -32 -16 -32 -33 0 -31 15 1 34 5 41 9 7
5 12 3 12 -6 0 -16 -27 -30 -41 -21 -5 3 -12 -2 -15 -10 -3 -9 -16 -16 -28
-17 -20 0 -20 -1 -1 -8 11 -4 35 -4 53 1 43 12 47 7 21 -21 -15 -16 -29 -21
-50 -17 -23 3 -29 1 -29 -15 0 -14 -7 -19 -27 -20 -16 0 -22 -3 -15 -6 10 -4
10 -8 1 -19 -9 -11 -7 -14 9 -14 11 0 33 5 48 10 17 7 30 7 38 0 8 -6 16 -6
23 1 7 7 14 5 23 -6 10 -13 9 -15 -6 -16 -11 -1 -22 -1 -26 0 -5 0 -8 -4 -8
-9 0 -6 7 -10 16 -10 8 0 12 -5 8 -11 -3 -6 -17 -9 -30 -6 -25 4 -33 -8 -11
-16 6 -3 2 -6 -10 -6 -15 -1 -23 5 -23 16 0 15 -2 14 -19 -3 -10 -10 -18 -23
-17 -28 0 -5 -9 -15 -21 -21 -18 -9 -20 -14 -10 -24 9 -9 7 -13 -11 -17 -12
-4 -22 -10 -22 -15 0 -5 21 1 48 15 26 13 58 26 72 30 22 6 23 5 9 -6 -9 -7
-14 -18 -12 -24 6 -18 -25 -37 -52 -32 -14 3 -25 1 -25 -3 0 -5 7 -9 15 -9 8
0 15 -5 15 -11 0 -7 -12 -9 -30 -7 -24 4 -30 1 -25 -10 4 -10 0 -12 -11 -8
-12 5 -15 2 -10 -10 3 -8 6 -18 6 -20 0 -3 14 3 31 11 17 9 36 14 42 12 7 -3
0 -8 -15 -12 -16 -4 -28 -11 -28 -17 0 -5 5 -6 11 -2 6 3 15 1 19 -6 6 -9 12
-9 30 0 19 10 24 10 32 -4 7 -12 14 -13 35 -5 14 5 28 7 31 4 9 -9 -28 -31
-84 -50 -29 -10 -55 -24 -58 -32 -3 -8 -11 -13 -18 -12 -25 3 -38 -1 -38 -12
0 -5 4 -8 9 -4 5 3 12 1 16 -5 4 -7 14 -6 28 2 33 17 147 19 147 2 0 -26 -39
-37 -82 -24 -22 6 -42 9 -46 6 -3 -3 9 -9 27 -12 37 -8 33 -17 -7 -19 -26 0
-138 -64 -117 -66 6 0 19 -2 29 -4 11 -2 25 -1 30 3 22 13 52 9 67 -10 13 -17
20 -18 37 -9 26 14 79 14 87 1 4 -6 -9 -10 -31 -10 -31 0 -35 -2 -24 -15 11
-13 7 -15 -29 -16 -59 -2 -61 -2 -71 -19 -6 -9 -24 -14 -49 -14 -22 1 -38 -3
-35 -7 3 -5 10 -6 16 -3 6 4 9 1 6 -7 -3 -8 -14 -14 -26 -13 -14 0 -20 -5 -19
-18 1 -12 6 -16 17 -13 45 18 69 17 82 -4 13 -21 38 -29 38 -12 0 4 10 6 23 4
14 -3 29 2 36 11 8 9 25 16 39 16 41 0 14 -16 -68 -40 -41 -12 -89 -26 -106
-31 -38 -12 -71 -44 -54 -54 5 -3 7 -12 3 -18 -3 -7 3 -4 15 7 11 10 27 16 34
14 7 -3 27 1 45 9 22 8 34 9 38 2 4 -5 16 -9 27 -7 12 2 23 -2 25 -8 2 -5 -38
-23 -88 -39 -67 -21 -101 -38 -128 -63 -24 -23 -29 -32 -16 -27 11 4 38 9 60
12 22 2 45 9 53 15 9 8 11 7 7 -5 -5 -13 5 -15 67 -13 68 1 73 0 70 -19 -2
-16 3 -13 25 13 15 18 32 32 36 32 10 0 6 -188 -5 -250 -13 -74 -16 -84 -42
-113 -25 -28 -96 -54 -96 -35 0 5 -4 7 -9 4 -10 -7 -59 -8 -144 -4 -31 2 -57
0 -57 -4 0 -5 5 -8 10 -8 6 0 10 -4 10 -10 0 -6 -9 -6 -24 0 -13 5 -26 7 -28
4 -3 -2 -35 -5 -71 -5 -66 -1 -97 -16 -34 -17 17 0 79 0 136 -1 125 -1 130
-11 7 -13 -47 0 -86 -4 -86 -8 0 -12 342 -3 350 10 4 6 18 11 31 10 13 -1 26
-1 29 0 25 9 59 8 75 -4 19 -14 19 -15 -5 -10 -23 5 -23 4 -6 -7 26 -16 257
-4 268 15 5 10 21 11 65 5 32 -5 151 -7 266 -6 114 2 207 0 207 -4 0 -4 -15
-7 -32 -7 -18 0 -73 -1 -123 -3 l-90 -2 65 -6 c99 -9 203 -2 197 13 -3 7 1 13
8 13 7 0 11 -6 8 -13 -3 -9 2 -12 19 -9 44 9 353 14 328 5 -18 -6 -7 -8 43 -9
40 -1 66 3 62 8 -3 6 -14 8 -25 6 -11 -2 -20 0 -20 6 0 11 33 7 52 -7 7 -6 33
-9 58 -7 108 7 353 9 330 2 -18 -5 -11 -7 28 -8 30 -1 52 3 52 10 0 13 190 5
199 -9 8 -12 64 -9 68 5 5 13 -75 25 -207 29 -131 4 -136 5 -80 14 44 7 43 7
-20 9 -180 4 -180 4 -215 43 -41 44 -53 101 -57 252 -3 119 6 141 38 87 20
-34 39 -42 30 -13 -6 17 0 19 61 17 38 -1 70 2 74 6 3 5 20 5 38 -1 17 -5 38
-7 46 -4 7 3 16 1 20 -5 3 -6 13 -11 21 -11 8 0 -3 15 -23 33 -26 23 -67 43
-131 63 -50 16 -90 33 -88 39 1 5 15 9 29 7 14 -1 28 1 31 6 7 11 88 -9 110
-27 14 -12 16 -11 16 3 0 9 5 16 10 16 20 0 -29 38 -61 48 -114 33 -180 58
-178 67 4 13 31 7 44 -9 17 -21 83 -27 94 -9 9 17 55 22 84 9 13 -6 17 -3 17
14 0 11 -4 18 -10 15 -5 -3 -18 -2 -27 4 -16 9 -16 11 7 21 22 9 21 10 -12 5
-21 -3 -39 -1 -43 5 -3 6 -10 8 -15 5 -4 -3 -10 2 -14 10 -4 11 -20 15 -58 15
-48 0 -50 1 -32 15 18 13 17 14 -18 15 -20 0 -39 4 -42 9 -6 10 71 8 95 -3 11
-5 22 -1 30 11 14 19 54 25 75 11 11 -8 40 -5 50 4 3 4 -9 14 -28 24 -18 9
-37 23 -41 30 -4 8 -18 12 -30 10 -12 -2 -31 0 -42 5 -18 7 -17 8 7 8 15 1 30
6 34 13 5 8 0 9 -17 4 -57 -16 -75 -16 -93 -3 -10 8 -16 19 -13 24 9 14 133 9
151 -6 9 -8 16 -8 20 -2 4 6 14 7 23 4 11 -4 14 -3 9 5 -4 7 -18 12 -31 12
-13 0 -27 5 -30 10 -3 6 1 10 9 10 9 0 16 4 16 8 0 4 -12 7 -27 6 -16 -1 -32
2 -38 6 -5 3 -31 14 -57 24 -27 10 -48 22 -48 27 0 12 12 11 44 -1 21 -8 26
-7 26 6 0 10 5 14 15 10 8 -3 22 -9 30 -12 8 -3 15 -1 15 6 0 7 8 9 22 4 20
-6 21 -5 9 10 -7 9 -21 16 -30 17 -9 0 -11 3 -4 5 6 3 23 -2 36 -11 23 -14 25
-14 31 0 9 24 8 28 -8 22 -10 -4 -13 -1 -10 7 3 9 -4 11 -26 8 -18 -2 -30 0
-30 7 0 6 7 11 15 11 8 0 15 3 15 8 0 4 -15 7 -32 7 -28 0 -33 4 -32 23 0 12
-5 22 -12 22 -7 0 -16 5 -20 11 -8 14 21 6 96 -27 48 -21 52 -21 32 -4 -13 11
-21 24 -17 30 3 5 2 10 -4 10 -6 0 -22 17 -35 37 -21 30 -26 33 -32 20 -3 -9
-14 -17 -23 -17 -14 0 -14 2 -1 10 12 8 10 10 -10 10 -30 0 -66 20 -37 20 23
0 22 18 -3 22 -15 2 -17 7 -10 18 9 13 11 13 19 1 8 -12 12 -12 25 -2 11 9 20
10 35 2 29 -16 64 -14 58 3 -3 8 -1 17 6 20 7 2 -4 5 -23 6 -31 1 -33 2 -12
10 12 5 22 12 22 16 0 3 -7 4 -15 0 -8 -3 -15 0 -15 6 0 6 -11 8 -29 5 -21 -4
-37 -1 -53 13 -29 23 -21 32 18 21 16 -4 38 -5 49 0 19 7 19 8 -1 8 -12 1 -25
8 -28 17 -3 8 -11 12 -16 9 -6 -4 -17 -1 -25 5 -17 14 -21 35 -5 25 6 -4 24
-8 40 -10 39 -5 41 19 3 33 -16 6 -22 11 -15 11 6 1 12 6 12 11 0 7 -6 7 -20
0 -23 -13 -56 4 -64 32 -4 19 -5 19 53 3 18 -6 22 -4 15 6 -6 11 -5 11 9 0 10
-8 20 -11 24 -7 4 3 -2 13 -13 21 -19 14 -19 14 1 16 16 1 15 2 -5 8 -28 8
-34 37 -12 63 8 9 11 21 8 27 -4 5 2 14 11 20 20 11 22 9 -32 26 -8 2 -15 13
-15 23 0 21 -23 46 -33 36 -3 -3 -11 -3 -16 1 -8 4 -6 13 4 28 19 28 19 43 0
27 -24 -20 -34 -1 -37 67 -3 70 -18 76 -18 7 0 -26 -5 -44 -11 -44 -8 0 -8 -5
1 -15 10 -12 9 -15 -4 -15 -10 0 -14 -5 -11 -10 3 -6 -4 -14 -16 -19 l-23 -8
24 -13 25 -13 -32 -11 c-18 -6 -32 -15 -30 -21 1 -5 5 -9 9 -8 14 5 8 -10 -9
-23 -10 -7 -26 -14 -35 -14 -21 0 -20 -29 1 -54 12 -15 10 -21 -15 -48 -16
-17 -24 -28 -18 -25 7 4 14 0 18 -8 3 -8 16 -15 28 -16 19 0 15 -4 -17 -20
-23 -11 -30 -17 -17 -15 27 5 23 -2 -10 -18 -53 -27 -3 -70 68 -60 25 4 44 2
48 -5 5 -7 -3 -9 -22 -5 -23 5 -37 -1 -67 -28 -23 -19 -36 -26 -32 -16 4 13 2
16 -11 11 -31 -11 -34 -15 -21 -24 12 -8 11 -11 -1 -19 -8 -5 -23 -10 -34 -10
-14 0 -16 -3 -7 -13 6 -8 9 -16 6 -18 -2 -3 24 -3 57 -2 36 1 65 8 70 15 6 9
8 7 6 -7 -2 -11 -16 -24 -33 -30 -17 -5 -36 -16 -43 -22 -7 -7 -19 -13 -26
-13 -8 0 -20 -8 -27 -17 -12 -15 -12 -16 3 -10 11 4 17 2 15 -6 -1 -7 7 -11
23 -9 46 7 13 -9 -51 -23 -53 -13 -56 -14 -19 -11 25 3 52 7 60 9 8 1 5 -1 -7
-7 -13 -5 -23 -14 -23 -19 0 -4 6 -5 13 -1 7 4 8 3 4 -2 -5 -5 -14 -9 -20 -9
-16 0 -87 -48 -87 -59 0 -5 7 -2 16 5 10 8 44 14 89 14 l72 1 -27 -23 c-15
-13 -35 -23 -44 -23 -9 0 -16 -5 -16 -11 0 -7 7 -8 18 -4 26 11 122 15 97 5
-11 -5 -28 -9 -38 -9 -11 -1 -33 -11 -50 -23 -18 -13 -40 -21 -50 -20 -12 2
-17 -1 -12 -7 3 -6 -4 -15 -17 -20 -19 -8 -20 -10 -4 -10 15 -1 16 -4 6 -16
-17 -20 -1 -19 33 4 27 18 82 18 71 0 -8 -14 9 -10 30 6 27 20 36 19 36 -5 0
-14 -7 -20 -22 -20 -12 0 -30 -7 -39 -16 -10 -9 -38 -18 -61 -20 -24 -1 -34 0
-23 3 11 3 25 10 30 15 7 8 4 9 -8 4 -10 -3 -36 -9 -58 -12 -21 -4 -36 -10
-33 -15 8 -13 -9 -10 -28 5 -23 17 -23 21 3 23 12 1 27 7 33 13 11 11 -8 9
-66 -6 -9 -3 -19 0 -23 6 -3 5 -17 10 -30 10 -13 0 -27 5 -31 12 -4 7 -3 8 4
4 7 -4 12 -2 12 3 0 6 -23 11 -52 12 -29 0 -62 4 -73 8 -19 8 -19 8 0 19 31
17 6 36 -30 22 -23 -9 -32 -8 -44 5 -15 15 -14 15 3 9 12 -5 17 -4 13 3 -8 13
73 9 100 -6 31 -16 38 -14 53 14 11 20 19 24 46 21 17 -2 41 -9 53 -15 12 -7
21 -8 21 -2 0 5 10 7 21 4 38 -10 16 20 -35 48 -30 17 -43 29 -35 32 8 3 -11
6 -41 6 -73 2 -97 16 -41 26 22 4 43 11 47 16 7 12 -1 11 -61 -5 -59 -15 -75
-14 -103 9 -19 17 -20 18 -2 37 16 17 21 18 42 7 34 -19 48 -19 48 -2 0 11 3
13 13 5 7 -6 27 -10 45 -10 18 1 41 -7 52 -17 13 -12 20 -14 20 -5 0 8 9 11
25 8 31 -6 33 8 3 18 -23 8 -30 9 -55 12 -21 3 -14 20 10 25 18 3 17 5 -8 7
-46 4 -48 4 -81 22 -17 10 -34 15 -37 12 -2 -3 -25 5 -50 17 -34 17 -44 26
-37 35 8 9 19 9 48 -1 41 -15 54 -12 45 10 -7 19 -1 19 44 0 44 -19 47 -19 40
0 -5 11 1 13 26 9 31 -5 30 -4 -13 21 -46 26 -20 25 32 -1 34 -18 39 -18 32 1
-4 9 0 15 7 15 11 0 11 2 -1 9 -8 6 -18 7 -22 5 -4 -3 -8 -1 -8 5 0 5 6 12 13
14 6 3 -4 3 -23 0 -26 -3 -40 0 -49 11 -12 14 -11 16 8 16 11 0 21 4 21 9 0 6
-15 7 -32 5 -45 -7 -78 17 -61 45 11 18 9 20 -18 26 -17 4 -28 10 -24 13 10
11 39 11 52 0 7 -5 20 -8 28 -4 9 3 13 2 10 -4 -6 -10 74 -51 97 -49 7 0 -3 7
-22 16 -29 13 -32 16 -17 24 20 12 23 33 3 26 -8 -3 -24 5 -37 19 -12 13 -17
24 -11 24 7 0 2 10 -9 21 -20 20 -23 20 -31 5 -5 -9 -18 -16 -28 -16 -25 0
-26 17 -2 23 9 2 4 3 -13 1 -16 -2 -39 3 -50 12 -19 14 -19 15 3 20 23 7 31
22 10 21 -7 0 -24 1 -37 1 -24 2 -24 2 -5 20 15 15 23 16 37 8 13 -8 20 -8 25
0 8 12 17 12 81 -5 47 -13 60 -9 42 13 -10 11 -8 17 6 25 15 9 11 11 -22 12
l-40 1 30 13 c17 8 28 15 25 15 -27 7 -62 11 -94 10 -27 0 -46 6 -62 21 -38
35 -32 51 14 36 33 -11 68 -13 97 -7 6 1 -3 5 -20 9 -16 4 -29 12 -27 19 2 12
-10 16 -36 13 -16 -3 -52 27 -52 42 0 5 8 6 18 2 9 -3 34 -8 54 -10 31 -4 36
-1 35 15 -1 14 -11 22 -36 26 -31 6 -33 8 -16 20 15 12 13 12 -19 7 -23 -4
-36 -2 -36 6 0 6 -9 11 -20 11 -15 0 -20 7 -20 29 0 28 1 28 33 17 17 -6 38
-15 45 -19 8 -5 12 -2 12 9 0 14 3 15 12 6 7 -7 19 -12 28 -12 10 1 5 9 -15
25 l-30 25 30 1 30 1 -33 8 c-36 8 -67 30 -43 30 8 0 11 10 9 28 -2 15 -9 27
-15 27 -7 0 -20 10 -28 22 -15 21 -15 22 2 16 10 -3 26 -13 36 -22 15 -13 20
-13 27 -2 4 8 6 21 2 29 -4 12 -1 14 13 8 11 -4 16 -4 12 0 -4 4 -2 13 4 21 9
10 6 13 -15 13 -38 0 -69 18 -62 36 9 24 -16 54 -46 54 -34 0 -34 4 -7 55 l21
40 -26 -24 -25 -24 -11 28 c-6 15 -12 41 -13 58 -3 42 -27 48 -27 7z m-25
-190 c3 -6 -4 -10 -17 -10 -18 0 -20 2 -8 10 19 12 18 12 25 0z m206 -58 c-13
-2 -27 0 -32 5 -6 6 3 7 23 4 28 -4 29 -6 9 -9z m-77 -108 c9 -3 16 -13 16
-21 0 -10 -6 -13 -16 -9 -9 3 -18 6 -20 6 -2 0 -4 7 -4 15 0 17 2 18 24 9z
m-179 -74 c-3 -5 -11 -10 -16 -10 -6 0 -7 5 -4 10 3 6 11 10 16 10 6 0 7 -4 4
-10z m55 6 c0 -3 -4 -8 -10 -11 -5 -3 -10 -1 -10 4 0 6 5 11 10 11 6 0 10 -2
10 -4z m-135 -116 c-3 -5 -12 -10 -18 -10 -7 0 -6 4 3 10 19 12 23 12 15 0z
m95 -40 c-8 -5 -19 -10 -25 -10 -5 0 -3 5 5 10 8 5 20 10 25 10 6 0 3 -5 -5
-10z m-20 -60 c-16 -11 -40 -13 -40 -5 0 8 44 24 50 18 2 -2 -2 -8 -10 -13z
m-55 -20 c-3 -5 -12 -10 -18 -10 -7 0 -6 4 3 10 19 12 23 12 15 0z m-41 -18
c3 -5 -1 -9 -9 -9 -8 0 -12 4 -9 9 3 4 7 8 9 8 2 0 6 -4 9 -8z m996 -177 c7
-8 8 -15 2 -15 -5 0 -15 7 -22 15 -7 8 -8 15 -2 15 5 0 15 -7 22 -15z m-955
-25 c-3 -5 -12 -10 -18 -10 -7 0 -6 4 3 10 19 12 23 12 15 0z m-630 -30 c-3
-5 -11 -10 -16 -10 -6 0 -7 5 -4 10 3 6 11 10 16 10 6 0 7 -4 4 -10z m1560 0
c3 -5 -1 -10 -9 -10 -9 0 -16 5 -16 10 0 6 4 10 9 10 6 0 13 -4 16 -10z m-645
-40 c0 -5 -2 -10 -4 -10 -3 0 -8 5 -11 10 -3 6 -1 10 4 10 6 0 11 -4 11 -10z
m-75 -10 c3 -6 -1 -7 -9 -4 -18 7 -21 14 -7 14 6 0 13 -4 16 -10z m-675 -46
c0 -2 -7 -4 -15 -4 -8 0 -15 4 -15 10 0 5 7 7 15 4 8 -4 15 -8 15 -10z m488 0
c-8 -9 -33 -18 -54 -20 l-39 -4 28 15 c15 9 31 14 35 11 4 -3 14 -1 22 5 23
14 26 11 8 -7z m752 12 c0 -2 -7 -7 -16 -10 -8 -3 -12 -2 -9 4 6 10 25 14 25
6z m-715 -46 c-3 -5 -11 -10 -16 -10 -6 0 -7 5 -4 10 3 6 11 10 16 10 6 0 7
-4 4 -10z m182 -45 c0 -8 -4 -15 -9 -15 -4 0 -8 7 -8 15 0 8 4 15 8 15 5 0 9
-7 9 -15z m-732 -33 c-3 -3 -11 0 -18 7 -9 10 -8 11 6 5 10 -3 15 -9 12 -12z
m1275 8 c-8 -5 -19 -10 -25 -10 -5 0 -3 5 5 10 8 5 20 10 25 10 6 0 3 -5 -5
-10z m-670 -15 c0 -2 -10 -9 -22 -15 -22 -11 -22 -10 -4 4 21 17 26 19 26 11z
m50 -55 c0 -5 -5 -10 -11 -10 -5 0 -7 5 -4 10 3 6 8 10 11 10 2 0 4 -4 4 -10z
m40 -90 c0 -5 -2 -10 -4 -10 -3 0 -8 5 -11 10 -3 6 -1 10 4 10 6 0 11 -4 11
-10z m-665 -48 c-3 -3 -11 0 -18 7 -9 10 -8 11 6 5 10 -3 15 -9 12 -12z m1215
8 c-8 -5 -19 -10 -25 -10 -5 0 -3 5 5 10 8 5 20 10 25 10 6 0 3 -5 -5 -10z
m-710 -10 c0 -5 -5 -10 -11 -10 -5 0 -7 5 -4 10 3 6 8 10 11 10 2 0 4 -4 4
-10z m-405 -50 c3 -5 1 -10 -4 -10 -6 0 -11 5 -11 10 0 6 2 10 4 10 3 0 8 -4
11 -10z m405 -2 c0 -7 -13 -13 -30 -14 -36 -1 -38 3 -7 16 31 12 37 12 37 -2z
m215 -8 c3 -5 1 -10 -4 -10 -6 0 -11 5 -11 10 0 6 2 10 4 10 3 0 8 -4 11 -10z
m-704 -18 c-13 -2 -27 0 -32 5 -6 6 3 7 23 4 28 -4 29 -6 9 -9z m1193 6 c-3
-4 -15 -8 -27 -8 -15 0 -18 3 -9 8 17 11 43 11 36 0z m-624 -10 c0 -4 -1 -8
-3 -8 -1 0 -17 -4 -36 -10 -33 -9 -33 -9 -15 8 18 18 54 24 54 10z m235 2 c3
-5 -1 -10 -9 -10 -8 0 -18 5 -21 10 -3 6 1 10 9 10 8 0 18 -4 21 -10z m-860
-10 c3 -5 1 -10 -4 -10 -6 0 -11 5 -11 10 0 6 2 10 4 10 3 0 8 -4 11 -10z
m485 -14 c0 -2 -7 -7 -16 -10 -8 -3 -12 -2 -9 4 6 10 25 14 25 6z m385 -36 c3
-5 1 -10 -4 -10 -6 0 -11 5 -11 10 0 6 2 10 4 10 3 0 8 -4 11 -10z m-380 -29
c-3 -6 -11 -11 -17 -11 -6 0 -6 6 2 15 14 17 26 13 15 -4z m61 -63 c4 -7 3 -8
-5 -4 -6 4 -24 0 -39 -9 l-27 -16 24 20 c27 24 37 26 47 9z m54 -12 c0 -3 -4
-8 -10 -11 -5 -3 -10 -1 -10 4 0 6 5 11 10 11 6 0 10 -2 10 -4z m217 -23 c-8
-7 -37 9 -31 19 3 5 12 4 20 -3 8 -6 13 -14 11 -16z m-246 -37 c-6 -7 -24 -16
-39 -19 -15 -3 -36 -9 -47 -13 -15 -5 -17 -4 -9 5 8 9 57 28 103 40 2 1 -2 -5
-8 -13z m334 -17 c4 -6 5 -13 2 -15 -7 -8 -57 7 -57 17 0 13 47 11 55 -2z
m-488 -24 c-27 -24 -47 -26 -47 -4 0 11 36 28 60 28 10 0 5 -9 -13 -24z m190
3 c-3 -8 -6 -5 -6 6 -1 11 2 17 5 13 3 -3 4 -12 1 -19z m203 -11 c31 -26 33
-27 51 -11 11 10 22 14 26 11 3 -4 0 -7 -8 -7 -11 0 -11 -2 1 -10 20 -13 53
-13 45 1 -10 14 25 38 55 38 14 0 36 -6 50 -13 17 -10 30 -11 42 -5 12 6 18 6
18 0 0 -6 15 -7 35 -4 28 5 35 2 35 -11 0 -10 -11 -19 -30 -22 -16 -4 -28 -10
-25 -14 2 -4 -6 -5 -19 -3 -13 3 -27 0 -30 -6 -5 -7 -1 -9 8 -5 10 4 16 1 16
-9 0 -19 -29 -44 -38 -31 -8 10 -99 42 -122 42 -14 0 -189 61 -200 69 -8 7 20
20 39 18 10 0 33 -13 51 -28z m270 29 c0 -3 -4 -8 -10 -11 -5 -3 -10 -1 -10 4
0 6 5 11 10 11 6 0 10 -2 10 -4z m-1060 -16 c12 -8 11 -10 -7 -10 -13 0 -23 5
-23 10 0 13 11 13 30 0z m1250 0 c0 -5 -10 -10 -22 -10 -19 0 -20 2 -8 10 19
13 30 13 30 0z m-1068 -20 c-14 -12 -18 -21 -12 -25 6 -4 17 -2 24 4 8 7 30
13 51 15 20 1 41 9 47 17 7 11 11 11 15 2 2 -7 11 -13 19 -13 42 0 -9 -41 -56
-46 -55 -5 -56 -5 -41 -11 10 -4 5 -10 -15 -18 -34 -14 -54 -9 -54 12 0 10 6
13 16 9 8 -3 12 -2 9 4 -3 6 -24 13 -45 16 -43 7 -69 27 -50 39 6 4 22 4 36 1
13 -4 24 -3 24 1 0 5 12 9 27 10 l28 1 -23 -18z m258 1 c0 -5 -9 -11 -20 -14
-11 -3 -20 -1 -20 3 0 5 8 11 18 13 9 3 18 5 20 6 1 0 2 -3 2 -8z m855 0 c3
-5 1 -12 -5 -16 -5 -3 -10 1 -10 9 0 18 6 21 15 7z m-1350 -11 c3 -5 2 -10 -4
-10 -5 0 -13 5 -16 10 -3 6 -2 10 4 10 5 0 13 -4 16 -10z m729 -16 c7 -19 2
-18 -19 6 -16 17 -16 20 -3 15 9 -4 19 -13 22 -21z m813 20 c-3 -3 -12 -4 -19
-1 -8 3 -5 6 6 6 11 1 17 -2 13 -5z m-917 -14 c0 -5 -10 -15 -22 -21 -23 -12
-23 -12 -4 10 21 23 26 26 26 11z m720 -23 c0 -7 -12 -18 -27 -25 -16 -6 -43
-22 -62 -34 -19 -12 -55 -26 -80 -30 -25 -5 -58 -11 -73 -15 -19 -3 -28 -1
-28 7 0 7 7 10 16 6 11 -4 15 -2 11 8 -3 8 3 22 14 32 11 10 19 12 19 5 0 -9
5 -9 21 -1 11 7 28 8 37 4 35 -15 49 -12 97 21 58 40 55 39 55 22z m-1283 -33
c40 -27 46 -28 74 -13 12 6 28 7 37 3 16 -7 21 -8 47 -13 6 -1 1 -9 -10 -18
-12 -9 -14 -14 -5 -11 62 21 240 42 240 28 0 -5 10 -7 23 -4 19 3 23 0 22 -16
-1 -11 -3 -22 -6 -24 -2 -3 -40 -7 -84 -11 -44 -3 -95 -8 -112 -11 -18 -3 -33
-1 -33 4 0 10 -11 13 -101 30 -25 4 -67 23 -93 40 -26 18 -54 32 -62 32 -7 0
-14 5 -14 11 0 14 34 2 77 -27z m438 26 c-3 -5 -12 -10 -18 -10 -7 0 -6 4 3
10 19 12 23 12 15 0z m115 -10 c0 -5 -5 -10 -11 -10 -5 0 -7 5 -4 10 3 6 8 10
11 10 2 0 4 -4 4 -10z m387 -16 c-3 -3 -12 -4 -19 -1 -8 3 -5 6 6 6 11 1 17
-2 13 -5z m-27 -49 c16 -8 36 -12 44 -9 19 7 46 -12 46 -32 0 -8 -9 -14 -19
-14 -11 0 -23 -5 -27 -11 -5 -8 1 -10 20 -7 21 4 24 3 15 -8 -13 -16 -47 -10
-102 17 -21 10 -48 19 -60 19 -12 1 -32 6 -45 14 -20 11 -21 14 -9 25 9 7 26
9 40 6 14 -4 28 -2 31 4 10 15 32 14 66 -4z m-330 -26 c0 -6 -4 -7 -10 -4 -5
3 -10 11 -10 16 0 6 5 7 10 4 6 -3 10 -11 10 -16z m-140 -19 c-24 -15 -36 -11
-14 4 10 8 21 12 24 10 2 -3 -2 -9 -10 -14z m-710 -9 c0 -5 -9 -11 -20 -14
-11 -3 -20 -1 -20 3 0 5 8 11 18 13 9 3 18 5 20 6 1 0 2 -3 2 -8z m265 -1 l20
-9 -20 0 c-11 0 -27 4 -35 9 -13 9 -13 10 0 9 8 0 24 -4 35 -9z m305 1 c0 -13
-34 -23 -54 -15 -9 3 -13 10 -10 15 7 12 64 12 64 0z m357 -21 c-2 -24 -17
-15 -17 11 0 11 4 18 9 14 6 -3 9 -14 8 -25z m588 20 c-11 -5 -27 -9 -35 -9
-13 -1 -13 0 0 9 8 5 24 9 35 9 l20 0 -20 -9z m272 -13 c4 -7 0 -8 -11 -4 -10
4 -22 7 -27 7 -5 0 -9 4 -9 9 0 12 38 2 47 -12z m-1441 -1 c10 -8 16 -17 13
-20 -3 -4 -17 2 -30 13 -27 23 -13 28 17 7z m1069 -6 c-10 -11 -22 -17 -28
-13 -6 4 -3 12 8 20 28 20 41 16 20 -7z m-375 0 c8 -5 12 -11 10 -14 -3 -2
-14 2 -24 10 -22 15 -10 19 14 4z m-616 -14 c22 -11 24 -15 12 -25 -10 -8 -21
-9 -41 -1 -23 9 -25 13 -15 25 15 18 12 18 44 1z m83 8 c-3 -3 -12 -4 -19 -1
-8 3 -5 6 6 6 11 1 17 -2 13 -5z m73 -22 c-46 -32 -74 -36 -52 -7 8 11 65 33
71 28 3 -2 -6 -11 -19 -21z m790 7 c0 -24 -62 -31 -83 -10 -8 8 -3 11 15 11
15 0 29 4 33 10 6 11 35 2 35 -11z m-219 -38 c13 -11 21 -22 18 -26 -4 -3 -20
5 -35 19 -34 29 -18 35 17 7z m-313 -130 c2 -127 -11 -246 -37 -313 -6 -16
-26 -43 -46 -62 -35 -35 -64 -42 -169 -45 -16 -1 -32 -4 -35 -7 -3 -4 6 -4 22
-2 15 3 30 2 32 -2 6 -10 -89 -17 -112 -9 -9 3 -35 3 -57 -1 -43 -6 -106 5
-106 19 0 4 -11 6 -25 3 -19 -3 -32 4 -55 28 -41 44 -51 84 -57 244 -5 133 -5
139 13 132 11 -5 33 -10 49 -13 17 -3 37 -11 47 -20 11 -10 18 -11 23 -3 4 7
21 3 51 -14 42 -23 45 -24 39 -6 -7 23 -5 23 29 10 28 -10 34 -2 14 18 -18 18
10 16 46 -3 40 -21 41 -14 3 27 -23 25 -44 37 -75 43 -23 4 -42 11 -42 16 0
11 11 11 68 0 23 -5 42 -5 42 -1 0 5 -21 11 -47 14 -27 3 -72 8 -100 12 -36 4
-53 10 -53 20 0 8 8 15 18 15 9 1 27 3 40 4 12 1 25 -2 28 -6 3 -5 0 -9 -5 -9
-6 0 -11 -5 -11 -10 0 -7 6 -7 18 -1 9 5 32 11 50 14 26 4 32 2 32 -13 0 -18
2 -18 35 -4 44 18 42 19 38 -18 -2 -18 0 -27 3 -20 3 7 28 24 55 37 52 27 63
30 54 16 -11 -19 13 -20 30 -1 11 12 37 22 67 26 26 4 51 11 54 16 3 5 11 7
17 5 8 -2 13 -47 15 -136z m133 92 c29 -44 54 -57 40 -20 l-9 24 100 -3 c84
-3 99 -1 94 11 -8 22 11 18 26 -4 12 -17 20 -18 53 -11 29 6 44 5 59 -6 26
-18 56 -20 38 -2 -7 7 -12 15 -12 18 0 8 47 7 55 -2 4 -4 13 -4 21 -1 20 7 14
-20 -6 -29 -8 -4 -37 -7 -65 -7 -65 -1 -125 -12 -125 -21 0 -4 17 -4 38 1 49
11 72 11 72 -1 0 -5 -18 -13 -39 -16 -29 -5 -49 -17 -75 -45 -19 -22 -29 -39
-22 -39 6 0 16 4 21 9 6 5 20 12 32 16 19 5 22 3 16 -11 -5 -14 -2 -16 20 -10
23 5 27 3 27 -15 0 -20 2 -21 18 -7 28 23 72 40 72 26 0 -6 9 -3 20 7 10 9 32
18 48 20 16 1 34 5 41 9 7 5 15 5 19 2 10 -11 9 -177 -3 -252 -15 -96 -38
-131 -82 -125 -7 1 -13 -3 -13 -9 0 -6 5 -8 10 -5 6 3 10 1 10 -4 0 -6 -18
-11 -39 -11 -24 0 -41 -5 -44 -14 -5 -12 -30 -14 -129 -13 -115 2 -127 5 -189
34 -54 25 -72 39 -92 75 -39 66 -48 115 -53 298 -5 142 -3 170 9 170 7 0 25
-17 38 -37z m144 27 c3 -5 -1 -10 -9 -10 -9 0 -16 5 -16 10 0 6 4 10 9 10 6 0
13 -4 16 -10z m-810 -78 c-3 -3 -11 0 -18 7 -9 10 -8 11 6 5 10 -3 15 -9 12
-12z m1155 8 c0 -5 -2 -10 -4 -10 -3 0 -8 5 -11 10 -3 6 -1 10 4 10 6 0 11 -4
11 -10z m152 -22 c-7 -7 -12 -8 -12 -2 0 14 12 26 19 19 2 -3 -1 -11 -7 -17z
m-1472 2 c0 -5 -2 -10 -4 -10 -3 0 -8 5 -11 10 -3 6 -1 10 4 10 6 0 11 -4 11
-10z m276 -25 c16 -12 16 -14 3 -15 -9 0 -22 7 -29 15 -16 19 0 19 26 0z m463
-92 c0 -60 2 -118 5 -130 2 -12 -2 -27 -10 -34 -15 -13 -20 -44 -5 -34 5 3 9
-14 8 -40 -1 -25 -5 -45 -9 -45 -4 0 -5 -7 -1 -16 4 -10 1 -15 -8 -14 -8 1
-25 1 -39 0 -15 -2 -4 -6 25 -10 l50 -7 -57 -1 c-32 -1 -58 1 -58 5 0 16 43
93 52 93 6 0 3 -11 -6 -25 -18 -28 -20 -35 -7 -35 15 0 30 60 29 112 -1 26 4
53 10 60 6 8 7 19 3 26 -4 7 -5 32 -2 55 4 23 6 66 6 95 0 28 3 52 7 52 3 0 7
-48 7 -107z m477 92 c-23 -17 -36 -19 -36 -6 0 11 18 19 40 20 11 0 10 -3 -4
-14z m-1382 -19 c-3 -8 -13 -17 -22 -21 -13 -5 -13 -2 3 15 21 24 26 25 19 6z
m1817 -8 c11 -21 11 -22 -4 -9 -10 7 -17 17 -17 22 0 15 9 10 21 -13z m-1617
-181 c2 -54 0 -99 -5 -103 -5 -3 -9 40 -9 102 0 59 2 105 5 102 3 -3 7 -48 9
-101z m1408 -5 c3 -64 1 -91 -6 -89 -6 2 -11 9 -10 15 1 7 2 49 3 94 0 45 3
79 5 77 2 -2 6 -46 8 -97z m-1393 -134 c-3 -39 1 -58 12 -58 6 0 8 9 4 23 -5
20 -5 20 9 -3 8 -14 12 -28 10 -32 -3 -5 3 -8 13 -8 14 0 15 -2 4 -9 -7 -5
-21 -7 -30 -6 -9 2 -19 4 -22 4 -9 1 -27 52 -27 79 -1 12 3 20 9 17 5 -4 9 -1
9 4 0 6 2 11 5 11 3 0 5 -10 4 -22z m1388 -9 c-3 -11 -1 -19 4 -19 5 0 3 -13
-6 -30 -17 -33 -60 -50 -78 -30 -9 10 -9 11 1 6 6 -4 12 -3 12 3 0 5 9 13 20
16 14 4 22 18 26 45 4 22 11 37 16 34 5 -4 8 -15 5 -25z m-33 -23 c-3 -9 -10
-16 -15 -16 -5 0 -4 9 3 20 14 22 21 20 12 -4z m-1374 -46 c0 -5 -5 -10 -11
-10 -5 0 -7 5 -4 10 3 6 8 10 11 10 2 0 4 -4 4 -10z m825 0 c3 -5 1 -10 -4
-10 -6 0 -11 5 -11 10 0 6 2 10 4 10 3 0 8 -4 11 -10z m600 0 c3 -5 1 -10 -4
-10 -6 0 -11 5 -11 10 0 6 2 10 4 10 3 0 8 -4 11 -10z m-1762 -17 c-7 -2 -19
-2 -25 0 -7 3 -2 5 12 5 14 0 19 -2 13 -5z m177 -23 c0 -5 -2 -10 -4 -10 -3 0
-8 5 -11 10 -3 6 -1 10 4 10 6 0 11 -4 11 -10z m407 -4 c4 -3 -44 -6 -106 -6
-62 0 -110 3 -108 8 6 8 206 7 214 -2z m1500 -12 c-3 -3 -12 -4 -19 -1 -8 3
-5 6 6 6 11 1 17 -2 13 -5z"/>
<path d="M785 119 c-3 -4 2 -6 10 -5 21 3 28 13 10 13 -9 0 -18 -4 -20 -8z"/>
<path d="M1078 103 c7 -3 16 -2 19 1 4 3 -2 6 -13 5 -11 0 -14 -3 -6 -6z"/>
<path d="M920 80 c-13 -8 -12 -10 3 -10 9 0 17 5 17 10 0 12 -1 12 -20 0z"/>
<path d="M1745 100 c3 -5 8 -10 11 -10 2 0 4 5 4 10 0 6 -5 10 -11 10 -5 0 -7
-4 -4 -10z"/>
<path d="M1770 102 c0 -4 9 -8 20 -8 11 0 20 4 20 8 0 4 -9 8 -20 8 -11 0 -20
-4 -20 -8z"/>
<path d="M1524 82 c4 -3 14 -7 22 -8 9 -1 13 0 10 4 -4 3 -14 7 -22 8 -9 1
-13 0 -10 -4z"/>
<path d="M345 1400 c3 -5 10 -10 16 -10 5 0 9 5 9 10 0 6 -7 10 -16 10 -8 0
-12 -4 -9 -10z"/>
<path d="M958 1268 c-27 -6 -48 -14 -48 -18 0 -4 23 -3 50 3 28 5 50 14 50 18
0 5 -1 8 -2 8 -2 -1 -24 -6 -50 -11z"/>
<path d="M868 1248 c5 -5 16 -8 23 -6 8 3 3 7 -10 11 -17 4 -21 3 -13 -5z"/>
<path d="M38 93 c12 -2 30 -2 40 0 9 3 -1 5 -23 4 -22 0 -30 -2 -17 -4z"/>
<path d="M2388 63 c7 -3 16 -2 19 1 4 3 -2 6 -13 5 -11 0 -14 -3 -6 -6z"/>
<path d="M6 22 c-2 -4 6 -8 20 -8 13 0 24 4 24 8 0 10 -37 10 -44 0z"/>
<path d="M65 20 c3 -5 8 -10 11 -10 2 0 4 5 4 10 0 6 -5 10 -11 10 -5 0 -7 -4
-4 -10z"/>
<path d="M884 18 c-3 -4 23 -7 58 -7 66 1 62 6 -10 11 -24 2 -46 0 -48 -4z"/>
<path d="M1010 9 c0 -5 5 -7 10 -4 6 3 10 8 10 11 0 2 -4 4 -10 4 -5 0 -10 -5
-10 -11z"/>
<path d="M1058 13 c12 -2 32 -2 45 0 12 2 2 4 -23 4 -25 0 -35 -2 -22 -4z"/>
<path d="M1698 13 c7 -3 16 -2 19 1 4 3 -2 6 -13 5 -11 0 -14 -3 -6 -6z"/>
</g>
</svg>
