<?xml version="1.0" encoding="utf-8"?>
<!-- Generator: Adobe Illustrator 28.1.0, SVG Export Plug-In . SVG Version: 6.00 Build 0)  -->
<svg version="1.1" id="Layer_1" xmlns="http://www.w3.org/2000/svg" xmlns:xlink="http://www.w3.org/1999/xlink" x="0px" y="0px"
	 viewBox="0 0 287.41 43.6" style="enable-background:new 0 0 287.41 43.6;" xml:space="preserve">
<style type="text/css">
	.st0{fill:#FFFFFF;}
	.st1{fill:#6F7173;}
</style>
<path class="st0" d="M283.1,43.6H4.31C1.93,43.6,0,41.67,0,39.29V4.31C0,1.93,1.93,0,4.31,0H283.1c2.38,0,4.31,1.93,4.31,4.31v34.98
	C287.41,41.67,285.48,43.6,283.1,43.6z"/>
<g>
	<path class="st1" d="M41.77,33.54h-8.92L26.59,10.2h7.27l3.55,18.54L40.6,10.2h7.07L41.77,33.54z"/>
	<path class="st1" d="M55.29,9.3c0,2.01-1.54,3.55-3.72,3.55c-2.18,0-3.72-1.54-3.72-3.55c0-2.01,1.54-3.55,3.72-3.55
		C53.75,5.74,55.29,7.29,55.29,9.3z M54.89,33.54h-6.64v-17.9h6.64V33.54z"/>
	<path class="st1" d="M71.75,17.28l-2.35,3.59c-1.27-0.8-2.82-1.31-4.26-1.31c-1.11,0-1.51,0.34-1.51,0.8c0,0.6,0.2,0.87,3.59,1.91
		c3.39,1.04,5.26,2.51,5.26,5.77c0,3.69-3.52,6.17-8.48,6.17c-3.15,0-6.03-1.11-7.88-2.85l3.15-3.49c1.27,1.01,2.92,1.78,4.56,1.78
		c1.17,0,1.88-0.37,1.88-1.11c0-0.87-0.37-1.04-3.45-1.98c-3.35-1.01-5.2-2.92-5.2-5.8c0-3.22,2.78-5.8,7.81-5.8
		C67.53,14.96,70.11,15.87,71.75,17.28z"/>
	<path class="st1" d="M81.11,9.3c0,2.01-1.54,3.55-3.72,3.55c-2.18,0-3.72-1.54-3.72-3.55c0-2.01,1.54-3.55,3.72-3.55
		C79.56,5.74,81.11,7.29,81.11,9.3z M80.7,33.54h-6.64v-17.9h6.64V33.54z"/>
	<path class="st1" d="M96.06,32.66c-1.47,1.04-3.69,1.54-5.36,1.54c-4.49-0.03-6.5-2.55-6.5-7.27v-6.81h-2.15v-4.49h2.15v-3.75
		l6.64-0.77v4.53h4.02l-0.67,4.49h-3.35v6.74c0,1.68,0.57,2.15,1.41,2.15c0.5,0,1.07-0.13,1.68-0.47L96.06,32.66z"/>
	<path class="st1" d="M118.36,36.96h-2.55V6.52h2.55V36.96z"/>
	<path class="st1" d="M148.23,25.22h-1.27v8.31h-6.91V10.2h8.55c6.67,0,10.02,2.28,10.02,7.41c0,2.95-1.27,4.69-4.12,6.34l5.7,9.59
		h-7.64L148.23,25.22z M146.96,20.6h1.81c1.88,0,2.82-0.94,2.82-2.98c0-1.84-1.11-2.68-3.15-2.68h-1.47V20.6z"/>
	<path class="st1" d="M177.16,26.46H166.3c0.37,2.58,1.64,3.05,3.59,3.05c1.27,0,2.51-0.5,4.06-1.58l2.68,3.62
		c-1.78,1.44-4.26,2.65-7.38,2.65c-6.57,0-9.65-4.06-9.65-9.59c0-5.23,2.98-9.65,8.92-9.65c5.3,0,8.78,3.39,8.78,9.39
		C177.3,24.92,177.23,25.82,177.16,26.46z M170.76,22.47c-0.03-1.81-0.4-3.32-2.11-3.32c-1.41,0-2.15,0.8-2.38,3.55h4.49V22.47z"/>
	<path class="st1" d="M193.26,17.28l-2.35,3.59c-1.27-0.8-2.82-1.31-4.26-1.31c-1.11,0-1.51,0.34-1.51,0.8c0,0.6,0.2,0.87,3.59,1.91
		c3.39,1.04,5.26,2.51,5.26,5.77c0,3.69-3.52,6.17-8.48,6.17c-3.15,0-6.03-1.11-7.88-2.85l3.15-3.49c1.27,1.01,2.92,1.78,4.56,1.78
		c1.17,0,1.88-0.37,1.88-1.11c0-0.87-0.37-1.04-3.45-1.98c-3.35-1.01-5.2-2.92-5.2-5.8c0-3.22,2.78-5.8,7.81-5.8
		C189.04,14.96,191.62,15.87,193.26,17.28z"/>
	<path class="st1" d="M212.3,26.46h-10.86c0.37,2.58,1.64,3.05,3.59,3.05c1.27,0,2.51-0.5,4.06-1.58l2.68,3.62
		c-1.78,1.44-4.26,2.65-7.38,2.65c-6.57,0-9.65-4.06-9.65-9.59c0-5.23,2.98-9.65,8.92-9.65c5.3,0,8.78,3.39,8.78,9.39
		C212.44,24.92,212.37,25.82,212.3,26.46z M205.9,22.47c-0.03-1.81-0.4-3.32-2.11-3.32c-1.41,0-2.15,0.8-2.38,3.55h4.49V22.47z"/>
	<path class="st1" d="M227.02,15.37l-1.04,6.4c-0.57-0.17-1.07-0.27-1.64-0.27c-2.15,0-2.85,1.61-3.35,3.89v8.15h-6.64v-17.9h5.8
		l0.54,3.35c0.74-2.35,2.55-3.92,4.53-3.92C225.92,15.06,226.39,15.16,227.02,15.37z"/>
	<path class="st1" d="M239.5,33.54h-7.84l-5.46-17.9h7.21l2.25,13.11l2.48-13.11h6.71L239.5,33.54z"/>
	<path class="st1" d="M262.13,26.46h-10.86c0.37,2.58,1.64,3.05,3.59,3.05c1.27,0,2.51-0.5,4.06-1.58l2.68,3.62
		c-1.78,1.44-4.26,2.65-7.38,2.65c-6.57,0-9.65-4.06-9.65-9.59c0-5.23,2.98-9.65,8.92-9.65c5.3,0,8.78,3.39,8.78,9.39
		C262.26,24.92,262.2,25.82,262.13,26.46z M255.73,22.47c-0.03-1.81-0.4-3.32-2.11-3.32c-1.41,0-2.15,0.8-2.38,3.55h4.49V22.47z"/>
</g>
</svg>

